<svg xmlns="http://www.w3.org/2000/svg" width="924" height="300" viewBox="0 0 924 300">
<rect width="924" height="300" fill="#0d0d0d"/>
<style>text { font-family: "Courier New", monospace; font-size: 20px; font-weight: bold; }</style>
<text x="30.4" y="35" fill="#1E3A8A">█</text>
<text x="40.8" y="35" fill="#1E3A8A">█</text>
<text x="51.199999999999996" y="35" fill="#1E3A8A">▀</text>
<text x="61.599999999999994" y="35" fill="#1E3A8A">█</text>
<text x="72.0" y="35" fill="#1E3A8A">█</text>
<text x="82.4" y="35" fill="#1E3A8A">█</text>
<text x="113.60000000000002" y="35" fill="#1E3A8A">▓</text>
<text x="124.00000000000003" y="35" fill="#1E3A8A">█</text>
<text x="134.40000000000003" y="35" fill="#1E3A8A">█</text>
<text x="144.80000000000004" y="35" fill="#1E3A8A">█</text>
<text x="155.20000000000005" y="35" fill="#2563EB">█</text>
<text x="165.60000000000005" y="35" fill="#2563EB">█</text>
<text x="196.80000000000007" y="35" fill="#2563EB">▄</text>
<text x="207.20000000000007" y="35" fill="#2563EB">█</text>
<text x="217.60000000000008" y="35" fill="#2563EB">█</text>
<text x="228.00000000000009" y="35" fill="#2563EB">█</text>
<text x="238.4000000000001" y="35" fill="#2563EB">█</text>
<text x="248.8000000000001" y="35" fill="#2563EB">▄</text>
<text x="290.40000000000003" y="35" fill="#3B82F6">▒</text>
<text x="300.8" y="35" fill="#3B82F6">█</text>
<text x="311.2" y="35" fill="#3B82F6">█</text>
<text x="321.59999999999997" y="35" fill="#3B82F6">█</text>
<text x="331.99999999999994" y="35" fill="#3B82F6">█</text>
<text x="342.3999999999999" y="35" fill="#3B82F6">█</text>
<text x="383.99999999999983" y="35" fill="#3B82F6">█</text>
<text x="394.3999999999998" y="35" fill="#3B82F6">█</text>
<text x="404.7999999999998" y="35" fill="#FACC15">█</text>
<text x="415.19999999999976" y="35" fill="#FACC15">▄</text>
<text x="467.19999999999965" y="35" fill="#FACC15">█</text>
<text x="487.9999999999996" y="35" fill="#FACC15">▓</text>
<text x="498.3999999999996" y="35" fill="#FACC15">█</text>
<text x="508.79999999999956" y="35" fill="#FACC15">█</text>
<text x="519.1999999999996" y="35" fill="#FACC15">█</text>
<text x="529.5999999999996" y="35" fill="#FCD34D">█</text>
<text x="539.9999999999995" y="35" fill="#FCD34D">█</text>
<text x="560.7999999999995" y="35" fill="#FCD34D">▒</text>
<text x="571.1999999999995" y="35" fill="#FCD34D">█</text>
<text x="581.5999999999995" y="35" fill="#FCD34D">█</text>
<text x="623.1999999999994" y="35" fill="#FCD34D">█</text>
<text x="633.5999999999993" y="35" fill="#FCD34D">█</text>
<text x="643.9999999999993" y="35" fill="#FCD34D">▒</text>
<text x="664.7999999999993" y="35" fill="#F59E0B">█</text>
<text x="675.1999999999992" y="35" fill="#F59E0B">█</text>
<text x="685.5999999999992" y="35" fill="#F59E0B">▓</text>
<text x="706.3999999999992" y="35" fill="#F59E0B">▒</text>
<text x="716.7999999999992" y="35" fill="#F59E0B">█</text>
<text x="727.1999999999991" y="35" fill="#F59E0B">█</text>
<text x="737.5999999999991" y="35" fill="#F59E0B">█</text>
<text x="747.9999999999991" y="35" fill="#F59E0B">█</text>
<text x="758.3999999999991" y="35" fill="#F59E0B">█</text>
<text x="799.999999999999" y="35" fill="#EF4444">█</text>
<text x="810.399999999999" y="35" fill="#EF4444">█</text>
<text x="820.7999999999989" y="35" fill="#EF4444">█</text>
<text x="831.1999999999989" y="35" fill="#EF4444">▄</text>
<text x="883.1999999999988" y="35" fill="#EF4444">█</text>
<text x="20" y="61" fill="#1E3A8A">▓</text>
<text x="30.4" y="61" fill="#1E3A8A">█</text>
<text x="40.8" y="61" fill="#1E3A8A">█</text>
<text x="61.599999999999994" y="61" fill="#1E3A8A">▒</text>
<text x="82.4" y="61" fill="#1E3A8A">█</text>
<text x="92.80000000000001" y="61" fill="#1E3A8A">█</text>
<text x="103.20000000000002" y="61" fill="#1E3A8A">▒</text>
<text x="113.60000000000002" y="61" fill="#1E3A8A">▓</text>
<text x="124.00000000000003" y="61" fill="#1E3A8A">█</text>
<text x="165.60000000000005" y="61" fill="#2563EB">▀</text>
<text x="186.40000000000006" y="61" fill="#2563EB">▒</text>
<text x="196.80000000000007" y="61" fill="#2563EB">█</text>
<text x="207.20000000000007" y="61" fill="#2563EB">█</text>
<text x="217.60000000000008" y="61" fill="#2563EB">▀</text>
<text x="238.4000000000001" y="61" fill="#2563EB">▀</text>
<text x="248.8000000000001" y="61" fill="#2563EB">█</text>
<text x="280.00000000000006" y="61" fill="#3B82F6">▒</text>
<text x="290.40000000000003" y="61" fill="#3B82F6">█</text>
<text x="300.8" y="61" fill="#3B82F6">█</text>
<text x="311.2" y="61" fill="#3B82F6">▒</text>
<text x="342.3999999999999" y="61" fill="#3B82F6">█</text>
<text x="352.7999999999999" y="61" fill="#3B82F6">█</text>
<text x="363.1999999999999" y="61" fill="#3B82F6">▒</text>
<text x="383.99999999999983" y="61" fill="#3B82F6">█</text>
<text x="394.3999999999998" y="61" fill="#3B82F6">█</text>
<text x="415.19999999999976" y="61" fill="#FACC15">▀</text>
<text x="425.59999999999974" y="61" fill="#FACC15">█</text>
<text x="467.19999999999965" y="61" fill="#FACC15">█</text>
<text x="487.9999999999996" y="61" fill="#FACC15">▓</text>
<text x="498.3999999999996" y="61" fill="#FACC15">█</text>
<text x="539.9999999999995" y="61" fill="#FCD34D">▀</text>
<text x="560.7999999999995" y="61" fill="#FCD34D">▒</text>
<text x="571.1999999999995" y="61" fill="#FCD34D">▒</text>
<text x="591.9999999999994" y="61" fill="#FCD34D">█</text>
<text x="612.7999999999994" y="61" fill="#FCD34D">█</text>
<text x="633.5999999999993" y="61" fill="#FCD34D">▒</text>
<text x="643.9999999999993" y="61" fill="#FCD34D">░</text>
<text x="654.3999999999993" y="61" fill="#F59E0B">▓</text>
<text x="664.7999999999993" y="61" fill="#F59E0B">█</text>
<text x="675.1999999999992" y="61" fill="#F59E0B">█</text>
<text x="685.5999999999992" y="61" fill="#F59E0B">▒</text>
<text x="695.9999999999992" y="61" fill="#F59E0B">▒</text>
<text x="706.3999999999992" y="61" fill="#F59E0B">█</text>
<text x="716.7999999999992" y="61" fill="#F59E0B">█</text>
<text x="727.1999999999991" y="61" fill="#F59E0B">▒</text>
<text x="758.3999999999991" y="61" fill="#F59E0B">█</text>
<text x="768.799999999999" y="61" fill="#F59E0B">█</text>
<text x="779.199999999999" y="61" fill="#EF4444">▒</text>
<text x="799.999999999999" y="61" fill="#EF4444">█</text>
<text x="810.399999999999" y="61" fill="#EF4444">█</text>
<text x="831.1999999999989" y="61" fill="#EF4444">▀</text>
<text x="841.5999999999989" y="61" fill="#EF4444">█</text>
<text x="883.1999999999988" y="61" fill="#EF4444">█</text>
<text x="20" y="87" fill="#1E3A8A">▓</text>
<text x="30.4" y="87" fill="#1E3A8A">█</text>
<text x="40.8" y="87" fill="#1E3A8A">█</text>
<text x="61.599999999999994" y="87" fill="#1E3A8A">░</text>
<text x="72.0" y="87" fill="#1E3A8A">▄</text>
<text x="82.4" y="87" fill="#1E3A8A">█</text>
<text x="103.20000000000002" y="87" fill="#1E3A8A">▒</text>
<text x="113.60000000000002" y="87" fill="#1E3A8A">▒</text>
<text x="124.00000000000003" y="87" fill="#1E3A8A">█</text>
<text x="134.40000000000003" y="87" fill="#1E3A8A">█</text>
<text x="144.80000000000004" y="87" fill="#1E3A8A">█</text>
<text x="186.40000000000006" y="87" fill="#2563EB">▒</text>
<text x="196.80000000000007" y="87" fill="#2563EB">▓</text>
<text x="207.20000000000007" y="87" fill="#2563EB">█</text>
<text x="259.2000000000001" y="87" fill="#2563EB">▄</text>
<text x="280.00000000000006" y="87" fill="#3B82F6">▒</text>
<text x="290.40000000000003" y="87" fill="#3B82F6">█</text>
<text x="300.8" y="87" fill="#3B82F6">█</text>
<text x="311.2" y="87" fill="#3B82F6">░</text>
<text x="342.3999999999999" y="87" fill="#3B82F6">█</text>
<text x="352.7999999999999" y="87" fill="#3B82F6">█</text>
<text x="363.1999999999999" y="87" fill="#3B82F6">▒</text>
<text x="373.59999999999985" y="87" fill="#3B82F6">▓</text>
<text x="383.99999999999983" y="87" fill="#3B82F6">█</text>
<text x="394.3999999999998" y="87" fill="#3B82F6">█</text>
<text x="425.59999999999974" y="87" fill="#FACC15">▀</text>
<text x="435.9999999999997" y="87" fill="#FACC15">█</text>
<text x="456.79999999999967" y="87" fill="#FACC15">█</text>
<text x="467.19999999999965" y="87" fill="#FACC15">█</text>
<text x="477.5999999999996" y="87" fill="#FACC15">▒</text>
<text x="487.9999999999996" y="87" fill="#FACC15">▒</text>
<text x="498.3999999999996" y="87" fill="#FACC15">█</text>
<text x="508.79999999999956" y="87" fill="#FACC15">█</text>
<text x="519.1999999999996" y="87" fill="#FACC15">█</text>
<text x="560.7999999999995" y="87" fill="#FCD34D">░</text>
<text x="571.1999999999995" y="87" fill="#FCD34D">░</text>
<text x="602.3999999999994" y="87" fill="#FCD34D">█</text>
<text x="643.9999999999993" y="87" fill="#FCD34D">░</text>
<text x="654.3999999999993" y="87" fill="#F59E0B">▒</text>
<text x="664.7999999999993" y="87" fill="#F59E0B">█</text>
<text x="675.1999999999992" y="87" fill="#F59E0B">█</text>
<text x="685.5999999999992" y="87" fill="#F59E0B">▒</text>
<text x="695.9999999999992" y="87" fill="#F59E0B">▒</text>
<text x="706.3999999999992" y="87" fill="#F59E0B">█</text>
<text x="716.7999999999992" y="87" fill="#F59E0B">█</text>
<text x="727.1999999999991" y="87" fill="#F59E0B">░</text>
<text x="758.3999999999991" y="87" fill="#F59E0B">█</text>
<text x="768.799999999999" y="87" fill="#F59E0B">█</text>
<text x="779.199999999999" y="87" fill="#EF4444">▒</text>
<text x="789.599999999999" y="87" fill="#EF4444">▓</text>
<text x="799.999999999999" y="87" fill="#EF4444">█</text>
<text x="810.399999999999" y="87" fill="#EF4444">█</text>
<text x="841.5999999999989" y="87" fill="#EF4444">▀</text>
<text x="851.9999999999989" y="87" fill="#EF4444">█</text>
<text x="872.7999999999988" y="87" fill="#EF4444">█</text>
<text x="883.1999999999988" y="87" fill="#EF4444">█</text>
<text x="893.5999999999988" y="87" fill="#EF4444">▒</text>
<text x="20" y="113" fill="#1E3A8A">▒</text>
<text x="30.4" y="113" fill="#1E3A8A">█</text>
<text x="40.8" y="113" fill="#1E3A8A">█</text>
<text x="51.199999999999996" y="113" fill="#1E3A8A">▀</text>
<text x="61.599999999999994" y="113" fill="#1E3A8A">▀</text>
<text x="72.0" y="113" fill="#1E3A8A">█</text>
<text x="82.4" y="113" fill="#1E3A8A">▄</text>
<text x="113.60000000000002" y="113" fill="#1E3A8A">▒</text>
<text x="124.00000000000003" y="113" fill="#1E3A8A">▓</text>
<text x="134.40000000000003" y="113" fill="#1E3A8A">█</text>
<text x="165.60000000000005" y="113" fill="#2563EB">▄</text>
<text x="186.40000000000006" y="113" fill="#2563EB">▒</text>
<text x="196.80000000000007" y="113" fill="#2563EB">▓</text>
<text x="207.20000000000007" y="113" fill="#2563EB">▓</text>
<text x="217.60000000000008" y="113" fill="#2563EB">▄</text>
<text x="238.4000000000001" y="113" fill="#2563EB">▄</text>
<text x="248.8000000000001" y="113" fill="#2563EB">█</text>
<text x="259.2000000000001" y="113" fill="#2563EB">█</text>
<text x="269.6000000000001" y="113" fill="#2563EB">▒</text>
<text x="280.00000000000006" y="113" fill="#3B82F6">▒</text>
<text x="290.40000000000003" y="113" fill="#3B82F6">█</text>
<text x="300.8" y="113" fill="#3B82F6">█</text>
<text x="342.3999999999999" y="113" fill="#3B82F6">█</text>
<text x="352.7999999999999" y="113" fill="#3B82F6">█</text>
<text x="363.1999999999999" y="113" fill="#3B82F6">░</text>
<text x="373.59999999999985" y="113" fill="#3B82F6">▓</text>
<text x="383.99999999999983" y="113" fill="#3B82F6">█</text>
<text x="394.3999999999998" y="113" fill="#3B82F6">█</text>
<text x="404.7999999999998" y="113" fill="#FACC15">▒</text>
<text x="435.9999999999997" y="113" fill="#FACC15">▐</text>
<text x="446.3999999999997" y="113" fill="#FACC15">▌</text>
<text x="456.79999999999967" y="113" fill="#FACC15">█</text>
<text x="467.19999999999965" y="113" fill="#FACC15">█</text>
<text x="477.5999999999996" y="113" fill="#FACC15">▒</text>
<text x="487.9999999999996" y="113" fill="#FACC15">▒</text>
<text x="498.3999999999996" y="113" fill="#FACC15">▓</text>
<text x="508.79999999999956" y="113" fill="#FACC15">█</text>
<text x="539.9999999999995" y="113" fill="#FCD34D">▄</text>
<text x="571.1999999999995" y="113" fill="#FCD34D">░</text>
<text x="591.9999999999994" y="113" fill="#FCD34D">█</text>
<text x="612.7999999999994" y="113" fill="#FCD34D">█</text>
<text x="633.5999999999993" y="113" fill="#FCD34D">▒</text>
<text x="654.3999999999993" y="113" fill="#F59E0B">░</text>
<text x="664.7999999999993" y="113" fill="#F59E0B">█</text>
<text x="675.1999999999992" y="113" fill="#F59E0B">█</text>
<text x="685.5999999999992" y="113" fill="#F59E0B">░</text>
<text x="695.9999999999992" y="113" fill="#F59E0B">▒</text>
<text x="706.3999999999992" y="113" fill="#F59E0B">█</text>
<text x="716.7999999999992" y="113" fill="#F59E0B">█</text>
<text x="758.3999999999991" y="113" fill="#F59E0B">█</text>
<text x="768.799999999999" y="113" fill="#F59E0B">█</text>
<text x="779.199999999999" y="113" fill="#EF4444">░</text>
<text x="789.599999999999" y="113" fill="#EF4444">▓</text>
<text x="799.999999999999" y="113" fill="#EF4444">█</text>
<text x="810.399999999999" y="113" fill="#EF4444">█</text>
<text x="820.7999999999989" y="113" fill="#EF4444">▒</text>
<text x="851.9999999999989" y="113" fill="#EF4444">▐</text>
<text x="862.3999999999988" y="113" fill="#EF4444">▌</text>
<text x="872.7999999999988" y="113" fill="#EF4444">█</text>
<text x="883.1999999999988" y="113" fill="#EF4444">█</text>
<text x="893.5999999999988" y="113" fill="#EF4444">▒</text>
<text x="20" y="139" fill="#1E3A8A">░</text>
<text x="30.4" y="139" fill="#1E3A8A">█</text>
<text x="40.8" y="139" fill="#1E3A8A">█</text>
<text x="51.199999999999996" y="139" fill="#1E3A8A">▓</text>
<text x="72.0" y="139" fill="#1E3A8A">▒</text>
<text x="82.4" y="139" fill="#1E3A8A">█</text>
<text x="92.80000000000001" y="139" fill="#1E3A8A">█</text>
<text x="103.20000000000002" y="139" fill="#1E3A8A">▒</text>
<text x="113.60000000000002" y="139" fill="#1E3A8A">░</text>
<text x="124.00000000000003" y="139" fill="#1E3A8A">▒</text>
<text x="134.40000000000003" y="139" fill="#1E3A8A">█</text>
<text x="144.80000000000004" y="139" fill="#1E3A8A">█</text>
<text x="155.20000000000005" y="139" fill="#2563EB">█</text>
<text x="165.60000000000005" y="139" fill="#2563EB">█</text>
<text x="176.00000000000006" y="139" fill="#2563EB">▒</text>
<text x="186.40000000000006" y="139" fill="#2563EB">▒</text>
<text x="207.20000000000007" y="139" fill="#2563EB">▓</text>
<text x="217.60000000000008" y="139" fill="#2563EB">█</text>
<text x="228.00000000000009" y="139" fill="#2563EB">█</text>
<text x="238.4000000000001" y="139" fill="#2563EB">█</text>
<text x="248.8000000000001" y="139" fill="#2563EB">▀</text>
<text x="269.6000000000001" y="139" fill="#2563EB">░</text>
<text x="280.00000000000006" y="139" fill="#3B82F6">░</text>
<text x="300.8" y="139" fill="#3B82F6">█</text>
<text x="311.2" y="139" fill="#3B82F6">█</text>
<text x="321.59999999999997" y="139" fill="#3B82F6">█</text>
<text x="331.99999999999994" y="139" fill="#3B82F6">█</text>
<text x="342.3999999999999" y="139" fill="#3B82F6">▓</text>
<text x="352.7999999999999" y="139" fill="#3B82F6">▒</text>
<text x="363.1999999999999" y="139" fill="#3B82F6">░</text>
<text x="373.59999999999985" y="139" fill="#3B82F6">▒</text>
<text x="383.99999999999983" y="139" fill="#3B82F6">█</text>
<text x="394.3999999999998" y="139" fill="#3B82F6">█</text>
<text x="404.7999999999998" y="139" fill="#FACC15">░</text>
<text x="446.3999999999997" y="139" fill="#FACC15">▓</text>
<text x="456.79999999999967" y="139" fill="#FACC15">█</text>
<text x="467.19999999999965" y="139" fill="#FACC15">█</text>
<text x="477.5999999999996" y="139" fill="#FACC15">░</text>
<text x="487.9999999999996" y="139" fill="#FACC15">░</text>
<text x="498.3999999999996" y="139" fill="#FACC15">▒</text>
<text x="508.79999999999956" y="139" fill="#FACC15">█</text>
<text x="519.1999999999996" y="139" fill="#FACC15">█</text>
<text x="529.5999999999996" y="139" fill="#FCD34D">█</text>
<text x="539.9999999999995" y="139" fill="#FCD34D">█</text>
<text x="550.3999999999995" y="139" fill="#FCD34D">▒</text>
<text x="560.7999999999995" y="139" fill="#FCD34D">▒</text>
<text x="571.1999999999995" y="139" fill="#FCD34D">█</text>
<text x="581.5999999999995" y="139" fill="#FCD34D">█</text>
<text x="591.9999999999994" y="139" fill="#FCD34D">▒</text>
<text x="612.7999999999994" y="139" fill="#FCD34D">▒</text>
<text x="623.1999999999994" y="139" fill="#FCD34D">█</text>
<text x="633.5999999999993" y="139" fill="#FCD34D">█</text>
<text x="643.9999999999993" y="139" fill="#FCD34D">▒</text>
<text x="654.3999999999993" y="139" fill="#F59E0B">░</text>
<text x="664.7999999999993" y="139" fill="#F59E0B">█</text>
<text x="675.1999999999992" y="139" fill="#F59E0B">█</text>
<text x="685.5999999999992" y="139" fill="#F59E0B">░</text>
<text x="695.9999999999992" y="139" fill="#F59E0B">░</text>
<text x="716.7999999999992" y="139" fill="#F59E0B">█</text>
<text x="727.1999999999991" y="139" fill="#F59E0B">█</text>
<text x="737.5999999999991" y="139" fill="#F59E0B">█</text>
<text x="747.9999999999991" y="139" fill="#F59E0B">█</text>
<text x="758.3999999999991" y="139" fill="#F59E0B">▓</text>
<text x="768.799999999999" y="139" fill="#F59E0B">▒</text>
<text x="779.199999999999" y="139" fill="#EF4444">░</text>
<text x="789.599999999999" y="139" fill="#EF4444">▒</text>
<text x="799.999999999999" y="139" fill="#EF4444">█</text>
<text x="810.399999999999" y="139" fill="#EF4444">█</text>
<text x="820.7999999999989" y="139" fill="#EF4444">░</text>
<text x="862.3999999999988" y="139" fill="#EF4444">▓</text>
<text x="872.7999999999988" y="139" fill="#EF4444">█</text>
<text x="883.1999999999988" y="139" fill="#EF4444">█</text>
<text x="893.5999999999988" y="139" fill="#EF4444">░</text>
<text x="20" y="165" fill="#1E3A8A">░</text>
<text x="40.8" y="165" fill="#1E3A8A">▒</text>
<text x="51.199999999999996" y="165" fill="#1E3A8A">▓</text>
<text x="72.0" y="165" fill="#1E3A8A">░</text>
<text x="82.4" y="165" fill="#1E3A8A">▒</text>
<text x="92.80000000000001" y="165" fill="#1E3A8A">▓</text>
<text x="103.20000000000002" y="165" fill="#1E3A8A">░</text>
<text x="113.60000000000002" y="165" fill="#1E3A8A">░</text>
<text x="124.00000000000003" y="165" fill="#1E3A8A">░</text>
<text x="144.80000000000004" y="165" fill="#1E3A8A">▒</text>
<text x="155.20000000000005" y="165" fill="#2563EB">░</text>
<text x="176.00000000000006" y="165" fill="#2563EB">░</text>
<text x="186.40000000000006" y="165" fill="#2563EB">░</text>
<text x="207.20000000000007" y="165" fill="#2563EB">░</text>
<text x="217.60000000000008" y="165" fill="#2563EB">▒</text>
<text x="238.4000000000001" y="165" fill="#2563EB">▒</text>
<text x="269.6000000000001" y="165" fill="#2563EB">░</text>
<text x="280.00000000000006" y="165" fill="#3B82F6">░</text>
<text x="300.8" y="165" fill="#3B82F6">▒</text>
<text x="311.2" y="165" fill="#3B82F6">░</text>
<text x="321.59999999999997" y="165" fill="#3B82F6">▒</text>
<text x="331.99999999999994" y="165" fill="#3B82F6">░</text>
<text x="342.3999999999999" y="165" fill="#3B82F6">▒</text>
<text x="352.7999999999999" y="165" fill="#3B82F6">░</text>
<text x="373.59999999999985" y="165" fill="#3B82F6">░</text>
<text x="394.3999999999998" y="165" fill="#3B82F6">▒</text>
<text x="404.7999999999998" y="165" fill="#FACC15">░</text>
<text x="446.3999999999997" y="165" fill="#FACC15">▒</text>
<text x="467.19999999999965" y="165" fill="#FACC15">▒</text>
<text x="487.9999999999996" y="165" fill="#FACC15">░</text>
<text x="498.3999999999996" y="165" fill="#FACC15">░</text>
<text x="519.1999999999996" y="165" fill="#FACC15">▒</text>
<text x="529.5999999999996" y="165" fill="#FCD34D">░</text>
<text x="550.3999999999995" y="165" fill="#FCD34D">░</text>
<text x="560.7999999999995" y="165" fill="#FCD34D">▒</text>
<text x="571.1999999999995" y="165" fill="#FCD34D">▒</text>
<text x="591.9999999999994" y="165" fill="#FCD34D">░</text>
<text x="612.7999999999994" y="165" fill="#FCD34D">░</text>
<text x="623.1999999999994" y="165" fill="#FCD34D">▓</text>
<text x="643.9999999999993" y="165" fill="#FCD34D">░</text>
<text x="654.3999999999993" y="165" fill="#F59E0B">░</text>
<text x="664.7999999999993" y="165" fill="#F59E0B">▓</text>
<text x="695.9999999999992" y="165" fill="#F59E0B">░</text>
<text x="716.7999999999992" y="165" fill="#F59E0B">▒</text>
<text x="727.1999999999991" y="165" fill="#F59E0B">░</text>
<text x="737.5999999999991" y="165" fill="#F59E0B">▒</text>
<text x="747.9999999999991" y="165" fill="#F59E0B">░</text>
<text x="758.3999999999991" y="165" fill="#F59E0B">▒</text>
<text x="768.799999999999" y="165" fill="#F59E0B">░</text>
<text x="789.599999999999" y="165" fill="#EF4444">░</text>
<text x="810.399999999999" y="165" fill="#EF4444">▒</text>
<text x="820.7999999999989" y="165" fill="#EF4444">░</text>
<text x="862.3999999999988" y="165" fill="#EF4444">▒</text>
<text x="883.1999999999988" y="165" fill="#EF4444">▒</text>
<text x="40.8" y="191" fill="#1E3A8A">░</text>
<text x="51.199999999999996" y="191" fill="#1E3A8A">▒</text>
<text x="72.0" y="191" fill="#1E3A8A">░</text>
<text x="92.80000000000001" y="191" fill="#1E3A8A">▒</text>
<text x="103.20000000000002" y="191" fill="#1E3A8A">░</text>
<text x="124.00000000000003" y="191" fill="#1E3A8A">░</text>
<text x="144.80000000000004" y="191" fill="#1E3A8A">░</text>
<text x="176.00000000000006" y="191" fill="#2563EB">░</text>
<text x="207.20000000000007" y="191" fill="#2563EB">░</text>
<text x="238.4000000000001" y="191" fill="#2563EB">▒</text>
<text x="300.8" y="191" fill="#3B82F6">░</text>
<text x="321.59999999999997" y="191" fill="#3B82F6">▒</text>
<text x="342.3999999999999" y="191" fill="#3B82F6">▒</text>
<text x="352.7999999999999" y="191" fill="#3B82F6">░</text>
<text x="373.59999999999985" y="191" fill="#3B82F6">░</text>
<text x="394.3999999999998" y="191" fill="#3B82F6">░</text>
<text x="404.7999999999998" y="191" fill="#FACC15">░</text>
<text x="446.3999999999997" y="191" fill="#FACC15">░</text>
<text x="467.19999999999965" y="191" fill="#FACC15">▒</text>
<text x="477.5999999999996" y="191" fill="#FACC15">░</text>
<text x="498.3999999999996" y="191" fill="#FACC15">░</text>
<text x="519.1999999999996" y="191" fill="#FACC15">░</text>
<text x="550.3999999999995" y="191" fill="#FCD34D">░</text>
<text x="560.7999999999995" y="191" fill="#FCD34D">░</text>
<text x="571.1999999999995" y="191" fill="#FCD34D">░</text>
<text x="612.7999999999994" y="191" fill="#FCD34D">░</text>
<text x="623.1999999999994" y="191" fill="#FCD34D">▒</text>
<text x="643.9999999999993" y="191" fill="#FCD34D">░</text>
<text x="664.7999999999993" y="191" fill="#F59E0B">▒</text>
<text x="685.5999999999992" y="191" fill="#F59E0B">░</text>
<text x="716.7999999999992" y="191" fill="#F59E0B">░</text>
<text x="737.5999999999991" y="191" fill="#F59E0B">▒</text>
<text x="758.3999999999991" y="191" fill="#F59E0B">▒</text>
<text x="768.799999999999" y="191" fill="#F59E0B">░</text>
<text x="789.599999999999" y="191" fill="#EF4444">░</text>
<text x="810.399999999999" y="191" fill="#EF4444">░</text>
<text x="820.7999999999989" y="191" fill="#EF4444">░</text>
<text x="862.3999999999988" y="191" fill="#EF4444">░</text>
<text x="883.1999999999988" y="191" fill="#EF4444">▒</text>
<text x="893.5999999999988" y="191" fill="#EF4444">░</text>
<text x="40.8" y="217" fill="#1E3A8A">░</text>
<text x="51.199999999999996" y="217" fill="#1E3A8A">░</text>
<text x="92.80000000000001" y="217" fill="#1E3A8A">░</text>
<text x="144.80000000000004" y="217" fill="#1E3A8A">░</text>
<text x="186.40000000000006" y="217" fill="#2563EB">░</text>
<text x="280.00000000000006" y="217" fill="#3B82F6">░</text>
<text x="300.8" y="217" fill="#3B82F6">░</text>
<text x="321.59999999999997" y="217" fill="#3B82F6">░</text>
<text x="342.3999999999999" y="217" fill="#3B82F6">▒</text>
<text x="404.7999999999998" y="217" fill="#FACC15">░</text>
<text x="446.3999999999997" y="217" fill="#FACC15">░</text>
<text x="467.19999999999965" y="217" fill="#FACC15">░</text>
<text x="519.1999999999996" y="217" fill="#FACC15">░</text>
<text x="571.1999999999995" y="217" fill="#FCD34D">░</text>
<text x="623.1999999999994" y="217" fill="#FCD34D">░</text>
<text x="664.7999999999993" y="217" fill="#F59E0B">▒</text>
<text x="685.5999999999992" y="217" fill="#F59E0B">░</text>
<text x="695.9999999999992" y="217" fill="#F59E0B">░</text>
<text x="716.7999999999992" y="217" fill="#F59E0B">░</text>
<text x="737.5999999999991" y="217" fill="#F59E0B">░</text>
<text x="758.3999999999991" y="217" fill="#F59E0B">▒</text>
<text x="820.7999999999989" y="217" fill="#EF4444">░</text>
<text x="862.3999999999988" y="217" fill="#EF4444">░</text>
<text x="883.1999999999988" y="217" fill="#EF4444">░</text>
<text x="51.199999999999996" y="243" fill="#1E3A8A">░</text>
<text x="144.80000000000004" y="243" fill="#1E3A8A">░</text>
<text x="176.00000000000006" y="243" fill="#2563EB">░</text>
<text x="186.40000000000006" y="243" fill="#2563EB">░</text>
<text x="207.20000000000007" y="243" fill="#2563EB">░</text>
<text x="321.59999999999997" y="243" fill="#3B82F6">░</text>
<text x="342.3999999999999" y="243" fill="#3B82F6">░</text>
<text x="467.19999999999965" y="243" fill="#FACC15">░</text>
<text x="519.1999999999996" y="243" fill="#FACC15">░</text>
<text x="550.3999999999995" y="243" fill="#FCD34D">░</text>
<text x="571.1999999999995" y="243" fill="#FCD34D">░</text>
<text x="623.1999999999994" y="243" fill="#FCD34D">░</text>
<text x="664.7999999999993" y="243" fill="#F59E0B">░</text>
<text x="737.5999999999991" y="243" fill="#F59E0B">░</text>
<text x="758.3999999999991" y="243" fill="#F59E0B">░</text>
<text x="883.1999999999988" y="243" fill="#EF4444">░</text>
<text x="186.40000000000006" y="269" fill="#2563EB">░</text>
</svg>